<svg width="719" height="134" viewBox="0 0 719 134" fill="none" xmlns="http://www.w3.org/2000/svg">
<path d="M45.816 131.308C29.5013 131.308 17.7867 127.873 10.672 121.004C3.55733 114.135 0 104.199 0 91.196V42.62C0 29.6173 3.55733 19.6813 10.672 12.812C17.7867 5.94265 29.5013 2.50798 45.816 2.50798H88.872V22.748H45.816C39.0693 22.748 34.04 24.3427 30.728 27.532C27.5387 30.7213 25.944 35.7507 25.944 42.62V56.788H80.776V77.028H25.944V91.196C25.944 97.9427 27.5387 102.972 30.728 106.284C34.04 109.473 39.0693 111.068 45.816 111.068H89.24V131.308H45.816Z" fill="#0084B8"/>
<path d="M111.365 2.50798H159.205C173.679 2.50798 185.087 4.59332 193.429 8.76399C201.893 12.9347 207.965 19.6813 211.645 29.004C215.447 38.204 217.349 50.8387 217.349 66.908C217.349 82.9773 215.447 95.6733 211.645 104.996C207.965 114.196 201.893 120.881 193.429 125.052C185.087 129.223 173.679 131.308 159.205 131.308H111.365V2.50798ZM159.205 111.068C167.301 111.068 173.679 109.657 178.341 106.836C183.002 104.015 186.314 99.4147 188.277 93.036C190.362 86.6573 191.405 77.948 191.405 66.908C191.405 55.868 190.362 47.1587 188.277 40.78C186.314 34.4013 183.002 29.8013 178.341 26.98C173.679 24.1587 167.301 22.748 159.205 22.748H137.309V111.068H159.205Z" fill="#0084B8"/>
<path d="M288.545 133.7C271.74 133.7 259.044 130.143 250.457 123.028C241.87 115.791 237.577 105.793 237.577 93.036V2.50798H263.521V93.036C263.521 106.652 271.862 113.46 288.545 113.46C305.228 113.46 313.569 106.652 313.569 93.036V2.50798H339.513V93.036C339.513 105.793 335.22 115.791 326.633 123.028C318.046 130.143 305.35 133.7 288.545 133.7Z" fill="#0084B8"/>
<path d="M358.801 77.028H410.137V92.668H358.801V77.028Z" fill="#0084B8"/>
<path d="M501.561 101.316H451.145L442.497 131.308H416.553L448.017 28.636C450.225 21.276 452.556 15.572 455.009 11.524C457.462 7.47599 460.345 4.59332 463.657 2.87599C467.092 1.15865 471.324 0.299988 476.353 0.299988C481.382 0.299988 485.553 1.15865 488.865 2.87599C492.177 4.59332 495.06 7.47599 497.513 11.524C500.089 15.572 502.481 21.276 504.689 28.636L536.153 131.308H510.209L501.561 101.316ZM495.857 81.996L480.401 29.004C479.542 25.8147 478.193 24.22 476.353 24.22C474.513 24.22 473.164 25.8147 472.305 29.004L456.849 81.996H495.857Z" fill="#87CEEB"/>
<path d="M555.552 2.50798H581.496V131.308H555.552V2.50798Z" fill="#87CEEB"/>
<path d="M612.693 2.50798H660.533C675.007 2.50798 686.415 4.59332 694.757 8.76399C703.221 12.9347 709.293 19.6813 712.973 29.004C716.775 38.204 718.677 50.8387 718.677 66.908C718.677 82.9773 716.775 95.6733 712.973 104.996C709.293 114.196 703.221 120.881 694.757 125.052C686.415 129.223 675.007 131.308 660.533 131.308H612.693V2.50798ZM660.533 111.068C668.629 111.068 675.007 109.657 679.669 106.836C684.33 104.015 687.642 99.4147 689.605 93.036C691.69 86.6573 692.733 77.948 692.733 66.908C692.733 55.868 691.69 47.1587 689.605 40.78C687.642 34.4013 684.33 29.8013 679.669 26.98C675.007 24.1587 668.629 22.748 660.533 22.748H638.637V111.068H660.533Z" fill="#87CEEB"/>
</svg>
